<svg
width="136"
height="28"
viewBox="0 0 136 28"
fill="none"
xmlns="http://www.w3.org/2000/svg"
>
<g clip-path="url(#clip0)">
  <path
    d="M7.32901 27.7054C4.68004 26.9709 2.24915 24.8997 1.00549 22.3175C0.0523884 20.3386 0.0535808 20.3525 0.0513287 11.2575C-0.0615868 3.39008 -0.0184108 3.13622 0.491163 2.37746C1.57346 0.519855 3.96013 0.123164 5.52493 1.5408C6.62357 2.5361 6.71091 2.8741 6.71091 6.13075V8.95497H11.3265C14.1498 8.95497 16.211 9.01431 16.6345 9.10778C19.0432 9.63945 19.9576 12.6041 18.2852 14.4597C18.0881 14.6784 17.6821 14.9932 17.383 15.1593C16.8581 15.4509 16.6633 15.4628 11.7751 15.5041L6.71091 15.5469V16.8064C6.71091 18.6383 6.89551 19.2376 7.72167 20.0879C8.6864 21.0808 8.94394 21.1276 13.4667 21.1313C16.9755 21.134 17.291 21.1548 17.8589 21.4194C20.013 22.4229 20.5496 25.0951 18.9612 26.9084C18.0328 27.9683 17.9715 27.9789 12.8287 27.9729C8.81459 27.9682 8.16219 27.9364 7.329 27.7054H7.32901ZM27.8829 27.7655C25.7914 27.2439 23.6329 25.6085 22.3136 23.5458C21.0978 21.6449 20.8608 20.3075 20.8545 15.3118C20.8491 11.0036 20.9332 10.4611 21.7385 9.60771C22.4838 8.81781 22.9587 8.61307 24.0553 8.60886C24.8926 8.60546 25.104 8.66015 25.6831 9.02862C26.0952 9.29084 26.5053 9.71276 26.76 10.1366C27.2701 11.0463 27.1765 11.4279 27.2395 15.1701C27.306 19.4292 27.314 19.53 27.6262 20.0468C28.6808 21.7925 30.8613 22.0497 32.3077 20.5991C33.1428 19.7616 33.2213 19.2695 33.2213 14.8707C33.2213 11.2537 33.2371 11.0102 33.5085 10.4536C34.0523 9.33843 34.8406 8.74818 36.0059 8.5838C37.2528 8.40789 38.5975 9.1644 39.2418 10.4042C39.5289 10.9568 39.5462 11.1836 39.611 15.2622C39.5878 18.6552 39.7429 19.6481 40.054 20.1233C41.0488 21.6692 43.1401 22.0018 44.4459 20.8217C45.3819 19.9759 45.3814 19.9788 45.4584 15.2515C45.5245 11.1937 45.5426 10.9553 45.8276 10.4042C47.0235 8.09093 50.0509 7.94513 51.3671 10.1374C52.2185 11.3522 51.8458 13.923 51.8458 15.5808C51.9076 17.7622 51.7833 20.5594 51.4127 21.4215C50.4044 24.3505 48.1586 26.6769 45.4568 27.5912C44.2313 28.0059 41.5306 28.1055 40.3137 27.7808C39.1406 27.4677 38.1254 26.9881 37.1592 26.2906L36.3482 25.7051L35.5372 26.2905C34.5566 26.9985 33.5639 27.4781 32.479 27.7679C31.4677 28.0381 28.9706 28.0368 27.8829 27.7655ZM56.1184 27.7859C55.4991 27.5084 54.7256 26.7589 54.3876 26.1087C54.0921 25.5404 54.0897 25.4776 54.0897 18.3298C54.0897 11.4515 54.1019 11.0986 54.3565 10.5701C55.4152 8.37271 58.1488 7.87815 59.8063 9.58414C60.8372 10.6451 60.8343 10.6189 60.7901 18.5558C60.752 25.4063 60.7458 25.5461 60.4573 26.0954C60.0777 26.8182 59.3881 27.4936 58.7504 27.7674C58.1337 28.0321 56.6905 28.0423 56.1184 27.7859V27.7859ZM70.385 27.7071C67.3629 26.8917 64.7319 24.4345 63.621 21.3898C63.0215 19.7467 62.974 18.9097 63.0197 10.774C63.0618 3.26991 63.0671 3.13928 63.3559 2.58853C64.7959 -0.157988 68.7372 0.189691 69.592 3.13863C69.7362 3.63616 69.792 4.54009 69.792 6.37891V8.92917L73.0209 8.97982C76.0064 9.02664 76.2906 9.05302 76.7935 9.32972C79.1565 10.6301 79.1672 13.8563 76.8129 15.1511C76.285 15.4414 76.0466 15.4637 73.0097 15.5073L69.7698 15.5538L69.8149 17.1866C69.8675 19.0921 70.0784 19.6632 70.997 20.388C71.8015 21.0227 72.308 21.1264 74.6183 21.1288C76.472 21.1306 76.7201 21.1609 77.3449 21.4603C79.956 22.7117 79.9532 26.5009 77.3403 27.7226C76.5326 28.1002 71.8028 28.0897 70.385 27.7071H70.385ZM87.6931 27.7139C84.2695 26.7501 81.4588 23.7901 80.5722 20.2149C80.3543 19.336 80.3302 18.4489 80.3292 11.2637C80.3809 3.80558 80.0214 4.09722 80.7 2.56228C81.4814 1.03702 83.094 0.36495 84.8016 0.852898C85.5135 1.05632 86.7112 2.289 86.9088 3.02163C86.9911 3.32658 87.0565 4.75827 87.057 6.26154L87.0578 8.95504H89.8262C92.9971 8.95504 93.839 9.07592 94.603 9.64086C96.2572 10.8641 96.2949 13.605 94.6741 14.8134C93.8655 15.4162 93.1008 15.5314 89.906 15.5314H87.0578V16.7987C87.0578 18.4678 87.2439 19.1696 87.8858 19.9201C88.7608 20.9433 89.0855 21.0408 91.8952 21.1248C94.3409 21.1978 94.357 21.2004 95.0221 21.623C95.7837 22.1069 96.4883 23.1766 96.625 24.0567C96.8229 25.3304 96.1745 26.7648 95.0563 27.527L94.4879 27.9145L91.5545 27.9448C89.0504 27.9707 88.4854 27.9369 87.6931 27.7139L87.6931 27.7139ZM104.663 27.7771C102.676 27.2248 101.211 26.317 99.7778 24.7486C98.0366 22.8436 97.2514 20.7439 97.2564 18.0059C97.2595 16.3333 97.5378 15.0258 98.1852 13.6424C98.869 12.1812 99.6189 11.2283 100.724 10.4169C103.94 8.05451 109.658 7.90689 113.259 10.0933C114.548 10.8759 115.889 12.357 116.542 13.7205C117.863 16.4776 117.73 18.9748 116.219 19.7866C115.696 20.0675 115.453 20.0804 109.931 20.1182L104.188 20.1575V20.5246C104.188 21.0969 105.073 21.8725 106.047 22.1539C106.711 22.3457 107.513 22.3877 110.518 22.3883C112.552 22.3883 114.399 22.4516 114.672 22.5297C117.012 23.1988 117.481 26.3889 115.422 27.6309C114.755 28.095 114.352 27.9783 110.089 27.9753C106.555 27.9684 105.17 27.9178 104.663 27.7771V27.7771ZM110.64 15.3564C110.384 14.4736 109.65 13.951 108.309 13.6957C106.881 13.4241 104.886 14.0318 104.501 14.8551C104.331 15.2177 104.169 15.6304 104.169 15.6304C104.169 15.6304 105.357 15.6713 107.464 15.6713H110.731L110.64 15.3564ZM120.9 27.7151C120.199 27.3233 119.453 26.4133 119.275 25.7341C119.171 25.3369 119.138 23.7835 119.172 20.9338C119.222 16.7831 119.228 16.7037 119.595 15.5713C120.56 12.5886 123.141 10.1147 126.144 9.2947C127.247 8.99324 132.342 8.8488 133.454 9.08745C134.997 9.41885 136 10.6446 136 12.1997C136 13.526 135.414 14.5523 134.318 15.1489C133.801 15.4298 133.505 15.4597 130.562 15.5276C127.511 15.598 127.344 15.6161 126.854 15.9294C126.208 16.343 125.737 16.9807 125.546 17.7001C125.456 18.0378 125.397 19.7063 125.397 21.9053C125.396 25.5499 125.396 25.551 125.042 26.2808C124.804 26.7736 124.484 27.157 124.057 27.4612C123.502 27.8568 123.3 27.9163 122.405 27.9493C121.604 27.9787 121.281 27.9286 120.9 27.7151ZM55.9515 6.49375C53.7933 5.38686 53.4011 2.46342 55.1934 0.843764C55.8916 0.212816 56.4533 0 57.4205 0C58.7729 0 59.8234 0.650325 60.4308 1.86354C61.8832 4.76446 58.798 7.95364 55.9515 6.49375Z"
    fill="#202A36"
  />
</g>
<defs>
  <clipPath id="clip0">
    <rect width="136" height="28" fill="white" />
  </clipPath>
</defs>
</svg>